<svg xmlns="http://www.w3.org/2000/svg" xmlns:xlink="http://www.w3.org/1999/xlink" width="466" zoomAndPan="magnify" viewBox="0 0 349.5 269.25" height="359" preserveAspectRatio="xMidYMid meet" version="1.0"><defs><clipPath id="3d7a78a9a2"><path d="M 7 54 L 150 54 L 150 134 L 7 134 Z M 7 54 " clip-rule="nonzero"/></clipPath><clipPath id="560f5f65b5"><path d="M 17.476562 54.449219 L 149.601562 107.011719 L 139.15625 133.265625 L 7.03125 80.707031 Z M 17.476562 54.449219 " clip-rule="nonzero"/></clipPath><clipPath id="ae0733bb05"><path d="M 0 0.328125 L 142.820312 0.328125 L 142.820312 79.308594 L 0 79.308594 Z M 0 0.328125 " clip-rule="nonzero"/></clipPath><clipPath id="4237f969d3"><path d="M 10.476562 0.449219 L 142.601562 53.011719 L 132.15625 79.265625 L 0.03125 26.707031 Z M 10.476562 0.449219 " clip-rule="nonzero"/></clipPath><clipPath id="219afd153e"><rect x="0" width="143" y="0" height="80"/></clipPath><clipPath id="ec24ab1582"><path d="M 0.234375 101 L 145 101 L 145 165 L 0.234375 165 Z M 0.234375 101 " clip-rule="nonzero"/></clipPath><clipPath id="4df515f04d"><path d="M 0.234375 137.246094 L 137.972656 101.910156 L 144.996094 129.28125 L 7.257812 164.617188 Z M 0.234375 137.246094 " clip-rule="nonzero"/></clipPath><clipPath id="1a526e343e"><path d="M 0.234375 0.714844 L 145 0.714844 L 145 63.660156 L 0.234375 63.660156 Z M 0.234375 0.714844 " clip-rule="nonzero"/></clipPath><clipPath id="f47ff9d995"><path d="M 0.234375 36.246094 L 137.972656 0.910156 L 144.996094 28.28125 L 7.257812 63.617188 Z M 0.234375 36.246094 " clip-rule="nonzero"/></clipPath><clipPath id="9307ba7170"><rect x="0" width="145" y="0" height="64"/></clipPath><clipPath id="971d4e7374"><path d="M 102.214844 0 L 344.539062 0 L 344.539062 242.324219 L 102.214844 242.324219 Z M 102.214844 0 " clip-rule="nonzero"/></clipPath><clipPath id="ac33ca6d1a"><path d="M 223.378906 0 C 156.460938 0 102.214844 54.246094 102.214844 121.164062 C 102.214844 188.078125 156.460938 242.324219 223.378906 242.324219 C 290.292969 242.324219 344.539062 188.078125 344.539062 121.164062 C 344.539062 54.246094 290.292969 0 223.378906 0 Z M 223.378906 0 " clip-rule="nonzero"/></clipPath><clipPath id="1d5d64653f"><path d="M 0.214844 0 L 242.539062 0 L 242.539062 242.324219 L 0.214844 242.324219 Z M 0.214844 0 " clip-rule="nonzero"/></clipPath><clipPath id="309fc9af6d"><path d="M 121.378906 0 C 54.460938 0 0.214844 54.246094 0.214844 121.164062 C 0.214844 188.078125 54.460938 242.324219 121.378906 242.324219 C 188.292969 242.324219 242.539062 188.078125 242.539062 121.164062 C 242.539062 54.246094 188.292969 0 121.378906 0 Z M 121.378906 0 " clip-rule="nonzero"/></clipPath><clipPath id="0dd5107f22"><rect x="0" width="243" y="0" height="243"/></clipPath><clipPath id="9a439cd097"><path d="M 123 107 L 321 107 L 321 241 L 123 241 Z M 123 107 " clip-rule="nonzero"/></clipPath><clipPath id="0c29c76136"><path d="M 123.042969 173.613281 L 316.355469 107.882812 L 348.617188 202.769531 L 155.304688 268.5 Z M 123.042969 173.613281 " clip-rule="nonzero"/></clipPath><clipPath id="9ec0c75d26"><path d="M 123.042969 173.613281 L 316.355469 107.882812 L 348.617188 202.769531 L 155.304688 268.5 Z M 123.042969 173.613281 " clip-rule="nonzero"/></clipPath><clipPath id="6a31f81c3c"><path d="M 146 41 L 184 41 L 184 95 L 146 95 Z M 146 41 " clip-rule="nonzero"/></clipPath><clipPath id="7e52abd005"><path d="M 183.566406 39.976562 L 184.65625 95.3125 L 145.769531 96.078125 L 144.679688 40.742188 Z M 183.566406 39.976562 " clip-rule="nonzero"/></clipPath><clipPath id="e072a03bf5"><path d="M 164.277344 40.355469 C 159.160156 40.457031 154.296875 42.585938 150.75 46.273438 C 147.203125 49.960938 145.269531 54.90625 145.371094 60.023438 L 145.691406 76.410156 C 145.792969 81.527344 147.921875 86.394531 151.609375 89.9375 C 155.296875 93.484375 160.246094 95.421875 165.359375 95.320312 C 170.476562 95.21875 175.339844 93.089844 178.886719 89.402344 C 182.433594 85.714844 184.367188 80.769531 184.265625 75.652344 L 183.945312 59.261719 C 183.84375 54.148438 181.714844 49.28125 178.027344 45.734375 C 174.339844 42.191406 169.394531 40.253906 164.277344 40.355469 Z M 164.277344 40.355469 " clip-rule="nonzero"/></clipPath><clipPath id="a0c9ce8925"><path d="M 182.832031 40.738281 L 183.890625 94.578125 L 146.503906 95.3125 L 145.445312 41.472656 Z M 182.832031 40.738281 " clip-rule="nonzero"/></clipPath><clipPath id="9da6d5451c"><path d="M 183.046875 59.28125 L 183.371094 75.671875 C 183.464844 80.546875 181.621094 85.261719 178.238281 88.78125 C 174.859375 92.296875 170.21875 94.328125 165.34375 94.421875 C 160.464844 94.519531 155.75 92.671875 152.230469 89.292969 C 148.714844 85.910156 146.6875 81.273438 146.589844 76.394531 L 146.265625 60.003906 C 146.171875 55.128906 148.015625 50.410156 151.398438 46.894531 C 154.777344 43.378906 159.417969 41.347656 164.296875 41.253906 C 169.171875 41.15625 173.886719 43.003906 177.40625 46.382812 C 180.921875 49.765625 182.953125 54.402344 183.046875 59.28125 Z M 183.046875 59.28125 " clip-rule="nonzero"/></clipPath><clipPath id="a177b7bb98"><path d="M 183.566406 39.976562 L 184.65625 95.3125 L 145.769531 96.078125 L 144.679688 40.742188 Z M 183.566406 39.976562 " clip-rule="nonzero"/></clipPath><clipPath id="a7043607eb"><path d="M 182.832031 40.738281 L 183.890625 94.578125 L 146.503906 95.3125 L 145.445312 41.472656 Z M 182.832031 40.738281 " clip-rule="nonzero"/></clipPath><clipPath id="aa1a2e64f4"><path d="M 183.558594 39.980469 L 184.648438 95.316406 L 145.765625 96.082031 L 144.675781 40.746094 Z M 183.558594 39.980469 " clip-rule="nonzero"/></clipPath><clipPath id="7f9d7ef7b6"><path d="M 145 40 L 185 40 L 185 96 L 145 96 Z M 145 40 " clip-rule="nonzero"/></clipPath><clipPath id="d611b89779"><path d="M 183.566406 39.976562 L 184.65625 95.3125 L 145.769531 96.078125 L 144.679688 40.742188 Z M 183.566406 39.976562 " clip-rule="nonzero"/></clipPath><clipPath id="18b82739a3"><path d="M 164.277344 40.355469 C 159.160156 40.457031 154.296875 42.585938 150.75 46.273438 C 147.203125 49.960938 145.269531 54.90625 145.371094 60.023438 L 145.691406 76.410156 C 145.792969 81.527344 147.921875 86.394531 151.609375 89.9375 C 155.296875 93.484375 160.246094 95.421875 165.359375 95.320312 C 170.476562 95.21875 175.339844 93.089844 178.886719 89.402344 C 182.433594 85.714844 184.367188 80.769531 184.265625 75.652344 L 183.945312 59.261719 C 183.84375 54.148438 181.714844 49.28125 178.027344 45.734375 C 174.339844 42.191406 169.394531 40.253906 164.277344 40.355469 Z M 164.277344 40.355469 " clip-rule="nonzero"/></clipPath><clipPath id="566db111fd"><path d="M 183.566406 39.976562 L 184.65625 95.3125 L 145.769531 96.078125 L 144.679688 40.742188 Z M 183.566406 39.976562 " clip-rule="nonzero"/></clipPath><clipPath id="8890035383"><path d="M 184.296875 39.214844 L 185.402344 95.292969 L 145.777344 96.074219 L 144.671875 39.992188 Z M 184.296875 39.214844 " clip-rule="nonzero"/></clipPath><clipPath id="61fcc54689"><path d="M 164.28125 40.355469 C 159.167969 40.457031 154.300781 42.585938 150.757812 46.273438 C 147.210938 49.960938 145.277344 54.90625 145.375 60.019531 L 145.699219 76.410156 C 145.800781 81.523438 147.929688 86.390625 151.617188 89.9375 C 155.304688 93.480469 160.25 95.417969 165.363281 95.316406 C 170.476562 95.214844 175.34375 93.085938 178.886719 89.398438 C 182.433594 85.710938 184.367188 80.765625 184.265625 75.652344 L 183.945312 59.261719 C 183.84375 54.148438 181.714844 49.28125 178.027344 45.734375 C 174.339844 42.191406 169.394531 40.253906 164.28125 40.355469 Z M 164.28125 40.355469 " clip-rule="nonzero"/></clipPath><clipPath id="1089dcb3a4"><path d="M 197 41 L 235 41 L 235 95 L 197 95 Z M 197 41 " clip-rule="nonzero"/></clipPath><clipPath id="b57012233e"><path d="M 234.574219 39.976562 L 235.664062 95.3125 L 196.777344 96.078125 L 195.691406 40.742188 Z M 234.574219 39.976562 " clip-rule="nonzero"/></clipPath><clipPath id="e9e7f68dd2"><path d="M 215.285156 40.355469 C 210.171875 40.457031 205.304688 42.585938 201.757812 46.273438 C 198.214844 49.960938 196.277344 54.90625 196.378906 60.023438 L 196.703125 76.410156 C 196.800781 81.527344 198.929688 86.394531 202.617188 89.9375 C 206.308594 93.484375 211.253906 95.421875 216.367188 95.320312 C 221.484375 95.21875 226.351562 93.089844 229.894531 89.402344 C 233.441406 85.714844 235.378906 80.769531 235.277344 75.652344 L 234.953125 59.261719 C 234.851562 54.148438 232.722656 49.28125 229.035156 45.734375 C 225.347656 42.191406 220.402344 40.253906 215.285156 40.355469 Z M 215.285156 40.355469 " clip-rule="nonzero"/></clipPath><clipPath id="5d43d40f50"><path d="M 233.839844 40.738281 L 234.902344 94.578125 L 197.511719 95.3125 L 196.453125 41.472656 Z M 233.839844 40.738281 " clip-rule="nonzero"/></clipPath><clipPath id="bd0a2fe123"><path d="M 234.054688 59.28125 L 234.378906 75.671875 C 234.476562 80.546875 232.628906 85.261719 229.25 88.78125 C 225.867188 92.296875 221.226562 94.328125 216.351562 94.421875 C 211.472656 94.519531 206.757812 92.671875 203.242188 89.292969 C 199.722656 85.910156 197.695312 81.273438 197.597656 76.394531 L 197.277344 60.003906 C 197.179688 55.128906 199.023438 50.410156 202.40625 46.894531 C 205.789062 43.378906 210.425781 41.347656 215.304688 41.253906 C 220.179688 41.15625 224.898438 43.003906 228.414062 46.382812 C 231.929688 49.765625 233.960938 54.402344 234.054688 59.28125 Z M 234.054688 59.28125 " clip-rule="nonzero"/></clipPath><clipPath id="51fef6f0cf"><path d="M 234.574219 39.976562 L 235.664062 95.3125 L 196.777344 96.078125 L 195.691406 40.742188 Z M 234.574219 39.976562 " clip-rule="nonzero"/></clipPath><clipPath id="098c3fd9b0"><path d="M 233.839844 40.738281 L 234.902344 94.578125 L 197.511719 95.3125 L 196.453125 41.472656 Z M 233.839844 40.738281 " clip-rule="nonzero"/></clipPath><clipPath id="2631615d25"><path d="M 234.566406 39.980469 L 235.65625 95.316406 L 196.773438 96.082031 L 195.683594 40.746094 Z M 234.566406 39.980469 " clip-rule="nonzero"/></clipPath><clipPath id="94e29c5617"><path d="M 196 40 L 236 40 L 236 96 L 196 96 Z M 196 40 " clip-rule="nonzero"/></clipPath><clipPath id="62dc69c913"><path d="M 234.574219 39.976562 L 235.664062 95.3125 L 196.777344 96.078125 L 195.691406 40.742188 Z M 234.574219 39.976562 " clip-rule="nonzero"/></clipPath><clipPath id="00dc48a78b"><path d="M 215.285156 40.355469 C 210.171875 40.457031 205.304688 42.585938 201.757812 46.273438 C 198.214844 49.960938 196.277344 54.90625 196.378906 60.023438 L 196.703125 76.410156 C 196.800781 81.527344 198.929688 86.394531 202.617188 89.9375 C 206.308594 93.484375 211.253906 95.421875 216.367188 95.320312 C 221.484375 95.21875 226.351562 93.089844 229.894531 89.402344 C 233.441406 85.714844 235.378906 80.769531 235.277344 75.652344 L 234.953125 59.261719 C 234.851562 54.148438 232.722656 49.28125 229.035156 45.734375 C 225.347656 42.191406 220.402344 40.253906 215.285156 40.355469 Z M 215.285156 40.355469 " clip-rule="nonzero"/></clipPath><clipPath id="d5c3dceb93"><path d="M 234.574219 39.976562 L 235.664062 95.3125 L 196.777344 96.078125 L 195.691406 40.742188 Z M 234.574219 39.976562 " clip-rule="nonzero"/></clipPath><clipPath id="d633a63b67"><path d="M 235.308594 39.214844 L 236.410156 95.292969 L 196.785156 96.074219 L 195.683594 39.992188 Z M 235.308594 39.214844 " clip-rule="nonzero"/></clipPath><clipPath id="25ae7be9db"><path d="M 215.289062 40.355469 C 210.175781 40.457031 205.308594 42.585938 201.765625 46.273438 C 198.21875 49.960938 196.285156 54.90625 196.386719 60.019531 L 196.707031 76.410156 C 196.808594 81.523438 198.9375 86.390625 202.625 89.9375 C 206.3125 93.480469 211.257812 95.417969 216.371094 95.316406 C 221.484375 95.214844 226.351562 93.085938 229.898438 89.398438 C 233.441406 85.710938 235.378906 80.765625 235.277344 75.652344 L 234.953125 59.261719 C 234.851562 54.148438 232.726562 49.28125 229.035156 45.734375 C 225.347656 42.191406 220.402344 40.253906 215.289062 40.355469 Z M 215.289062 40.355469 " clip-rule="nonzero"/></clipPath><clipPath id="dfabb84295"><path d="M 149.417969 43.714844 L 180.230469 43.714844 L 180.230469 74.53125 L 149.417969 74.53125 Z M 149.417969 43.714844 " clip-rule="nonzero"/></clipPath><clipPath id="910761444c"><path d="M 164.824219 43.714844 C 156.316406 43.714844 149.417969 50.613281 149.417969 59.125 C 149.417969 67.632812 156.316406 74.53125 164.824219 74.53125 C 173.332031 74.53125 180.230469 67.632812 180.230469 59.125 C 180.230469 50.613281 173.332031 43.714844 164.824219 43.714844 Z M 164.824219 43.714844 " clip-rule="nonzero"/></clipPath><clipPath id="008c80e50d"><path d="M 0.417969 0.714844 L 31.230469 0.714844 L 31.230469 31.53125 L 0.417969 31.53125 Z M 0.417969 0.714844 " clip-rule="nonzero"/></clipPath><clipPath id="5dddb7268c"><path d="M 15.824219 0.714844 C 7.316406 0.714844 0.417969 7.613281 0.417969 16.125 C 0.417969 24.632812 7.316406 31.53125 15.824219 31.53125 C 24.332031 31.53125 31.230469 24.632812 31.230469 16.125 C 31.230469 7.613281 24.332031 0.714844 15.824219 0.714844 Z M 15.824219 0.714844 " clip-rule="nonzero"/></clipPath><clipPath id="9b2118fab5"><rect x="0" width="32" y="0" height="32"/></clipPath><clipPath id="8622cb5312"><path d="M 200.425781 60.402344 L 231.238281 60.402344 L 231.238281 91.214844 L 200.425781 91.214844 Z M 200.425781 60.402344 " clip-rule="nonzero"/></clipPath><clipPath id="70a0e5e951"><path d="M 215.832031 60.402344 C 207.324219 60.402344 200.425781 67.296875 200.425781 75.808594 C 200.425781 84.316406 207.324219 91.214844 215.832031 91.214844 C 224.339844 91.214844 231.238281 84.316406 231.238281 75.808594 C 231.238281 67.296875 224.339844 60.402344 215.832031 60.402344 Z M 215.832031 60.402344 " clip-rule="nonzero"/></clipPath><clipPath id="232b0881a5"><path d="M 0.425781 0.402344 L 31.238281 0.402344 L 31.238281 31.214844 L 0.425781 31.214844 Z M 0.425781 0.402344 " clip-rule="nonzero"/></clipPath><clipPath id="413c43541d"><path d="M 15.832031 0.402344 C 7.324219 0.402344 0.425781 7.296875 0.425781 15.808594 C 0.425781 24.316406 7.324219 31.214844 15.832031 31.214844 C 24.339844 31.214844 31.238281 24.316406 31.238281 15.808594 C 31.238281 7.296875 24.339844 0.402344 15.832031 0.402344 Z M 15.832031 0.402344 " clip-rule="nonzero"/></clipPath><clipPath id="dca66533b6"><rect x="0" width="32" y="0" height="32"/></clipPath></defs><g clip-path="url(#3d7a78a9a2)"><g clip-path="url(#560f5f65b5)"><g transform="matrix(1, 0, 0, 1, 7, 54)"><g clip-path="url(#219afd153e)"><g clip-path="url(#ae0733bb05)"><g clip-path="url(#4237f969d3)"><path fill="#ef5b13" d="M 10.476562 0.449219 L 142.582031 53 L 132.136719 79.257812 L 0.03125 26.707031 Z M 10.476562 0.449219 " fill-opacity="1" fill-rule="nonzero"/></g></g></g></g></g></g><g clip-path="url(#ec24ab1582)"><g clip-path="url(#4df515f04d)"><g transform="matrix(1, 0, 0, 1, 0, 101)"><g clip-path="url(#9307ba7170)"><g clip-path="url(#1a526e343e)"><g clip-path="url(#f47ff9d995)"><path fill="#ef5b13" d="M 0.234375 36.246094 L 137.949219 0.917969 L 144.972656 28.289062 L 7.257812 63.617188 Z M 0.234375 36.246094 " fill-opacity="1" fill-rule="nonzero"/></g></g></g></g></g></g><g clip-path="url(#971d4e7374)"><g clip-path="url(#ac33ca6d1a)"><g transform="matrix(1, 0, 0, 1, 102, 0.000000000000016915)"><g clip-path="url(#0dd5107f22)"><g clip-path="url(#1d5d64653f)"><g clip-path="url(#309fc9af6d)"><path fill="#7fcb44" d="M 0.214844 0 L 242.539062 0 L 242.539062 242.324219 L 0.214844 242.324219 Z M 0.214844 0 " fill-opacity="1" fill-rule="nonzero"/></g></g></g></g></g></g><g clip-path="url(#9a439cd097)"><g clip-path="url(#0c29c76136)"><g clip-path="url(#9ec0c75d26)"><path fill="#3d6931" d="M 316.035156 107.992188 C 332.964844 160.78125 304.496094 217.585938 251.746094 235.523438 C 199.058594 253.4375 141.863281 225.761719 123.109375 173.59375 Z M 316.035156 107.992188 " fill-opacity="1" fill-rule="nonzero"/></g></g></g><g clip-path="url(#6a31f81c3c)"><g clip-path="url(#7e52abd005)"><g clip-path="url(#e072a03bf5)"><g clip-path="url(#a0c9ce8925)"><g clip-path="url(#9da6d5451c)"><g clip-path="url(#a177b7bb98)"><g clip-path="url(#a7043607eb)"><g clip-path="url(#aa1a2e64f4)"><path fill="#ffffff" d="M 165.207031 95.6875 C 164.570312 95.699219 163.933594 95.667969 163.296875 95.59375 C 162.664062 95.515625 162.03125 95.394531 161.402344 95.230469 C 160.773438 95.066406 160.152344 94.859375 159.539062 94.609375 C 158.925781 94.359375 158.320312 94.066406 157.726562 93.730469 C 157.128906 93.394531 156.546875 93.019531 155.976562 92.601562 C 155.40625 92.1875 154.851562 91.734375 154.3125 91.238281 C 153.773438 90.746094 153.253906 90.21875 152.75 89.652344 C 152.246094 89.089844 151.761719 88.488281 151.300781 87.859375 C 150.835938 87.226562 150.394531 86.566406 149.976562 85.871094 C 149.558594 85.179688 149.167969 84.460938 148.796875 83.714844 C 148.429688 82.96875 148.089844 82.199219 147.773438 81.40625 C 147.457031 80.613281 147.167969 79.800781 146.90625 78.96875 C 146.648438 78.136719 146.417969 77.289062 146.214844 76.425781 C 146.011719 75.5625 145.839844 74.6875 145.699219 73.800781 C 145.558594 72.917969 145.445312 72.023438 145.367188 71.121094 C 145.285156 70.222656 145.238281 69.320312 145.21875 68.414062 C 145.203125 67.507812 145.214844 66.605469 145.261719 65.699219 C 145.304688 64.796875 145.378906 63.902344 145.488281 63.011719 C 145.59375 62.121094 145.730469 61.238281 145.898438 60.367188 C 146.066406 59.5 146.265625 58.640625 146.492188 57.800781 C 146.71875 56.960938 146.972656 56.136719 147.257812 55.332031 C 147.542969 54.527344 147.855469 53.742188 148.195312 52.984375 C 148.53125 52.222656 148.898438 51.488281 149.289062 50.78125 C 149.675781 50.074219 150.089844 49.394531 150.527344 48.746094 C 150.964844 48.09375 151.425781 47.480469 151.90625 46.894531 C 152.386719 46.308594 152.886719 45.761719 153.40625 45.246094 C 153.925781 44.734375 154.464844 44.257812 155.015625 43.820312 C 155.570312 43.382812 156.136719 42.984375 156.71875 42.625 C 157.300781 42.265625 157.894531 41.949219 158.496094 41.675781 C 159.101562 41.402344 159.714844 41.167969 160.335938 40.980469 C 160.957031 40.789062 161.582031 40.644531 162.214844 40.542969 C 162.847656 40.441406 163.480469 40.386719 164.117188 40.375 C 164.753906 40.359375 165.390625 40.394531 166.027344 40.46875 C 166.660156 40.546875 167.292969 40.664062 167.921875 40.832031 C 168.546875 40.996094 169.171875 41.203125 169.785156 41.453125 C 170.398438 41.703125 171.003906 41.996094 171.597656 42.332031 C 172.195312 42.667969 172.777344 43.042969 173.347656 43.460938 C 173.917969 43.875 174.472656 44.328125 175.011719 44.820312 C 175.550781 45.316406 176.070312 45.84375 176.574219 46.410156 C 177.078125 46.972656 177.5625 47.570312 178.023438 48.203125 C 178.488281 48.835938 178.925781 49.496094 179.34375 50.191406 C 179.761719 50.882812 180.15625 51.601562 180.523438 52.347656 C 180.894531 53.09375 181.234375 53.863281 181.550781 54.65625 C 181.867188 55.449219 182.15625 56.261719 182.414062 57.09375 C 182.675781 57.925781 182.90625 58.773438 183.109375 59.636719 C 183.308594 60.5 183.480469 61.375 183.625 62.261719 C 183.765625 63.144531 183.875 64.039062 183.957031 64.9375 C 184.035156 65.839844 184.085938 66.742188 184.105469 67.648438 C 184.121094 68.554688 184.109375 69.457031 184.0625 70.359375 C 184.019531 71.265625 183.941406 72.160156 183.835938 73.050781 C 183.730469 73.941406 183.59375 74.824219 183.425781 75.691406 C 183.257812 76.5625 183.058594 77.417969 182.832031 78.261719 C 182.605469 79.101562 182.347656 79.925781 182.066406 80.730469 C 181.78125 81.535156 181.46875 82.320312 181.128906 83.078125 C 180.789062 83.839844 180.425781 84.574219 180.035156 85.28125 C 179.644531 85.988281 179.230469 86.667969 178.792969 87.316406 C 178.355469 87.964844 177.898438 88.582031 177.417969 89.167969 C 176.9375 89.753906 176.433594 90.300781 175.914062 90.816406 C 175.394531 91.328125 174.859375 91.804688 174.308594 92.242188 C 173.753906 92.679688 173.1875 93.078125 172.605469 93.4375 C 172.023438 93.796875 171.429688 94.113281 170.828125 94.386719 C 170.222656 94.660156 169.609375 94.894531 168.988281 95.082031 C 168.367188 95.269531 167.742188 95.417969 167.109375 95.519531 C 166.476562 95.617188 165.84375 95.675781 165.207031 95.6875 Z M 165.207031 95.6875 " fill-opacity="1" fill-rule="nonzero"/></g></g></g></g></g></g></g></g><g clip-path="url(#7f9d7ef7b6)"><g clip-path="url(#d611b89779)"><g clip-path="url(#18b82739a3)"><g clip-path="url(#566db111fd)"><g clip-path="url(#8890035383)"><g clip-path="url(#61fcc54689)"><path stroke-linecap="butt" transform="matrix(0.014721, 0.747772, -0.747772, 0.014721, 183.565087, 39.975621)" fill="none" stroke-linejoin="miter" d="M 0.000289056 25.788404 C 0.00149191 32.626451 2.719301 39.188876 7.555468 44.022118 C 12.391533 48.860582 18.951484 51.575531 25.789429 51.57955 L 47.708758 51.577486 C 54.546805 51.576283 61.109231 48.858474 65.947695 44.02241 C 70.780937 39.186242 73.501109 32.626395 73.499906 25.788348 C 73.498703 18.950301 70.780894 12.387876 65.944726 7.554634 C 61.108661 2.71617 54.548711 0.00122045 47.710663 0.0024233 L 25.791437 -0.000733938 C 18.95339 0.000468912 12.390964 2.718277 7.5525 7.554342 C 2.719258 12.39051 -0.000913802 18.950357 0.000289056 25.788404 Z M 0.000289056 25.788404 " stroke="#000000" stroke-width="8" stroke-opacity="1" stroke-miterlimit="4"/></g></g></g></g></g></g><g clip-path="url(#1089dcb3a4)"><g clip-path="url(#b57012233e)"><g clip-path="url(#e9e7f68dd2)"><g clip-path="url(#5d43d40f50)"><g clip-path="url(#bd0a2fe123)"><g clip-path="url(#51fef6f0cf)"><g clip-path="url(#098c3fd9b0)"><g clip-path="url(#2631615d25)"><path fill="#ffffff" d="M 216.214844 95.6875 C 215.578125 95.699219 214.941406 95.667969 214.308594 95.59375 C 213.671875 95.515625 213.039062 95.394531 212.410156 95.230469 C 211.785156 95.066406 211.164062 94.859375 210.546875 94.609375 C 209.933594 94.359375 209.328125 94.066406 208.734375 93.730469 C 208.136719 93.394531 207.554688 93.019531 206.984375 92.601562 C 206.414062 92.1875 205.863281 91.734375 205.320312 91.238281 C 204.78125 90.746094 204.261719 90.21875 203.757812 89.652344 C 203.253906 89.089844 202.769531 88.488281 202.308594 87.859375 C 201.84375 87.226562 201.40625 86.566406 200.988281 85.871094 C 200.570312 85.179688 200.175781 84.460938 199.808594 83.714844 C 199.4375 82.96875 199.097656 82.199219 198.78125 81.40625 C 198.464844 80.613281 198.175781 79.800781 197.917969 78.96875 C 197.65625 78.136719 197.425781 77.289062 197.222656 76.425781 C 197.023438 75.5625 196.851562 74.6875 196.707031 73.800781 C 196.566406 72.917969 196.457031 72.023438 196.375 71.121094 C 196.296875 70.222656 196.246094 69.320312 196.230469 68.414062 C 196.210938 67.507812 196.222656 66.605469 196.269531 65.699219 C 196.3125 64.796875 196.390625 63.902344 196.496094 63.011719 C 196.601562 62.121094 196.738281 61.238281 196.90625 60.367188 C 197.074219 59.5 197.273438 58.640625 197.5 57.800781 C 197.726562 56.960938 197.984375 56.136719 198.269531 55.332031 C 198.550781 54.527344 198.863281 53.742188 199.203125 52.984375 C 199.542969 52.222656 199.90625 51.488281 200.296875 50.78125 C 200.6875 50.074219 201.101562 49.394531 201.539062 48.746094 C 201.976562 48.09375 202.433594 47.480469 202.914062 46.894531 C 203.398438 46.308594 203.898438 45.761719 204.417969 45.246094 C 204.9375 44.734375 205.472656 44.257812 206.027344 43.820312 C 206.578125 43.382812 207.144531 42.984375 207.726562 42.625 C 208.308594 42.265625 208.902344 41.949219 209.507812 41.675781 C 210.109375 41.402344 210.722656 41.167969 211.34375 40.980469 C 211.964844 40.789062 212.589844 40.644531 213.222656 40.542969 C 213.855469 40.441406 214.488281 40.386719 215.125 40.375 C 215.761719 40.359375 216.398438 40.394531 217.035156 40.46875 C 217.671875 40.546875 218.300781 40.664062 218.929688 40.832031 C 219.558594 40.996094 220.179688 41.203125 220.792969 41.453125 C 221.40625 41.703125 222.011719 41.996094 222.609375 42.332031 C 223.203125 42.667969 223.785156 43.042969 224.355469 43.460938 C 224.925781 43.875 225.480469 44.328125 226.019531 44.820312 C 226.558594 45.316406 227.082031 45.84375 227.582031 46.410156 C 228.085938 46.972656 228.570312 47.570312 229.035156 48.203125 C 229.496094 48.835938 229.9375 49.496094 230.355469 50.191406 C 230.773438 50.882812 231.164062 51.601562 231.535156 52.347656 C 231.902344 53.09375 232.246094 53.863281 232.558594 54.65625 C 232.875 55.449219 233.164062 56.261719 233.425781 57.09375 C 233.683594 57.925781 233.914062 58.773438 234.117188 59.636719 C 234.320312 60.5 234.492188 61.375 234.632812 62.261719 C 234.773438 63.144531 234.886719 64.039062 234.964844 64.9375 C 235.046875 65.839844 235.09375 66.742188 235.113281 67.648438 C 235.128906 68.554688 235.117188 69.457031 235.074219 70.359375 C 235.027344 71.265625 234.953125 72.160156 234.84375 73.050781 C 234.738281 73.941406 234.601562 74.824219 234.433594 75.691406 C 234.265625 76.5625 234.070312 77.417969 233.839844 78.261719 C 233.613281 79.101562 233.359375 79.925781 233.074219 80.730469 C 232.789062 81.535156 232.476562 82.320312 232.140625 83.078125 C 231.800781 83.839844 231.433594 84.574219 231.046875 85.28125 C 230.65625 85.988281 230.242188 86.667969 229.804688 87.316406 C 229.367188 87.964844 228.90625 88.582031 228.425781 89.167969 C 227.945312 89.753906 227.445312 90.300781 226.925781 90.816406 C 226.40625 91.328125 225.867188 91.804688 225.316406 92.242188 C 224.761719 92.679688 224.195312 93.078125 223.613281 93.4375 C 223.03125 93.796875 222.441406 94.113281 221.835938 94.386719 C 221.230469 94.660156 220.617188 94.894531 219.996094 95.082031 C 219.375 95.269531 218.75 95.417969 218.117188 95.519531 C 217.484375 95.617188 216.851562 95.675781 216.214844 95.6875 Z M 216.214844 95.6875 " fill-opacity="1" fill-rule="nonzero"/></g></g></g></g></g></g></g></g><g clip-path="url(#94e29c5617)"><g clip-path="url(#62dc69c913)"><g clip-path="url(#00dc48a78b)"><g clip-path="url(#d5c3dceb93)"><g clip-path="url(#d633a63b67)"><g clip-path="url(#25ae7be9db)"><path stroke-linecap="butt" transform="matrix(0.014721, 0.747772, -0.747772, 0.014721, 234.574038, 39.975621)" fill="none" stroke-linejoin="miter" d="M 0.000259096 25.789926 C 0.00146195 32.627973 2.719271 39.190398 7.555439 44.02364 C 12.391503 48.862104 18.951454 51.577053 25.789501 51.57585 L 47.708728 51.579008 C 54.546775 51.577805 61.109201 48.859996 65.947665 44.023932 C 70.780907 39.187764 73.501079 32.627917 73.499876 25.78987 C 73.498673 18.951823 70.780864 12.389398 65.944799 7.550934 C 61.108631 2.717692 54.548784 -0.00247954 47.710736 -0.00127669 L 25.791407 0.000787903 C 18.95336 0.00199075 12.391037 2.714577 7.55247 7.555864 C 2.719228 12.392031 -0.000943762 18.951879 0.000259096 25.789926 Z M 0.000259096 25.789926 " stroke="#000000" stroke-width="8" stroke-opacity="1" stroke-miterlimit="4"/></g></g></g></g></g></g><g clip-path="url(#dfabb84295)"><g clip-path="url(#910761444c)"><g transform="matrix(1, 0, 0, 1, 149, 43)"><g clip-path="url(#9b2118fab5)"><g clip-path="url(#008c80e50d)"><g clip-path="url(#5dddb7268c)"><path fill="#000000" d="M 0.417969 0.714844 L 31.230469 0.714844 L 31.230469 31.53125 L 0.417969 31.53125 Z M 0.417969 0.714844 " fill-opacity="1" fill-rule="nonzero"/></g></g></g></g></g></g><g clip-path="url(#8622cb5312)"><g clip-path="url(#70a0e5e951)"><g transform="matrix(1, 0, 0, 1, 200, 60)"><g clip-path="url(#dca66533b6)"><g clip-path="url(#232b0881a5)"><g clip-path="url(#413c43541d)"><path fill="#000000" d="M 0.425781 0.402344 L 31.238281 0.402344 L 31.238281 31.214844 L 0.425781 31.214844 Z M 0.425781 0.402344 " fill-opacity="1" fill-rule="nonzero"/></g></g></g></g></g></g></svg>