<svg xmlns="http://www.w3.org/2000/svg" xmlns:xlink="http://www.w3.org/1999/xlink" width="547" zoomAndPan="magnify" viewBox="0 0 410.25 381.749989" height="509" preserveAspectRatio="xMidYMid meet" version="1.0"><defs><clipPath id="edcdac9518"><path d="M 6 166 L 150 166 L 150 246 L 6 246 Z M 6 166 " clip-rule="nonzero"/></clipPath><clipPath id="d80dfaf952"><path d="M 17.257812 166.652344 L 149.511719 219.261719 L 139.054688 245.542969 L 6.800781 192.933594 Z M 17.257812 166.652344 " clip-rule="nonzero"/></clipPath><clipPath id="0411598028"><path d="M 0.707031 0.480469 L 143.726562 0.480469 L 143.726562 79.773438 L 0.707031 79.773438 Z M 0.707031 0.480469 " clip-rule="nonzero"/></clipPath><clipPath id="78986d2fdf"><path d="M 11.257812 0.652344 L 143.511719 53.261719 L 133.054688 79.542969 L 0.800781 26.933594 Z M 11.257812 0.652344 " clip-rule="nonzero"/></clipPath><clipPath id="833f1bd5ae"><rect x="0" width="144" y="0" height="80"/></clipPath><clipPath id="a6a189633d"><path d="M 0 214 L 145 214 L 145 277 L 0 277 Z M 0 214 " clip-rule="nonzero"/></clipPath><clipPath id="b9fd95d726"><path d="M 0 249.527344 L 137.867188 214.15625 L 144.898438 241.554688 L 7.027344 276.925781 Z M 0 249.527344 " clip-rule="nonzero"/></clipPath><clipPath id="7cf16765cc"><path d="M 0 0.152344 L 144.933594 0.152344 L 144.933594 63 L 0 63 Z M 0 0.152344 " clip-rule="nonzero"/></clipPath><clipPath id="c62e6fe5e6"><path d="M 0 35.527344 L 137.867188 0.15625 L 144.898438 27.554688 L 7.027344 62.925781 Z M 0 35.527344 " clip-rule="nonzero"/></clipPath><clipPath id="1ffd2c91ab"><rect x="0" width="145" y="0" height="63"/></clipPath><clipPath id="a1fe17314d"><path d="M 102.078125 112.148438 L 344.632812 112.148438 L 344.632812 354.707031 L 102.078125 354.707031 Z M 102.078125 112.148438 " clip-rule="nonzero"/></clipPath><clipPath id="84b19d26b2"><path d="M 223.355469 112.148438 C 156.375 112.148438 102.078125 166.449219 102.078125 233.429688 C 102.078125 300.410156 156.375 354.707031 223.355469 354.707031 C 290.335938 354.707031 344.632812 300.410156 344.632812 233.429688 C 344.632812 166.449219 290.335938 112.148438 223.355469 112.148438 Z M 223.355469 112.148438 " clip-rule="nonzero"/></clipPath><clipPath id="22431bcba6"><path d="M 0.078125 0.148438 L 242.632812 0.148438 L 242.632812 242.707031 L 0.078125 242.707031 Z M 0.078125 0.148438 " clip-rule="nonzero"/></clipPath><clipPath id="1b35ebcfdb"><path d="M 121.355469 0.148438 C 54.375 0.148438 0.078125 54.449219 0.078125 121.429688 C 0.078125 188.410156 54.375 242.707031 121.355469 242.707031 C 188.335938 242.707031 242.632812 188.410156 242.632812 121.429688 C 242.632812 54.449219 188.335938 0.148438 121.355469 0.148438 Z M 121.355469 0.148438 " clip-rule="nonzero"/></clipPath><clipPath id="91ac7f2c87"><rect x="0" width="243" y="0" height="243"/></clipPath><clipPath id="5958fbfd2f"><path d="M 122 220 L 321 220 L 321 354 L 122 354 Z M 122 220 " clip-rule="nonzero"/></clipPath><clipPath id="412aac4de7"><path d="M 122.925781 285.929688 L 316.421875 220.136719 L 348.714844 315.113281 L 155.21875 380.90625 Z M 122.925781 285.929688 " clip-rule="nonzero"/></clipPath><clipPath id="142fcee1ab"><path d="M 122.925781 285.929688 L 316.421875 220.136719 L 348.714844 315.113281 L 155.21875 380.90625 Z M 122.925781 285.929688 " clip-rule="nonzero"/></clipPath><clipPath id="5df929d08e"><path d="M 146 153 L 184 153 L 184 207 L 146 207 Z M 146 153 " clip-rule="nonzero"/></clipPath><clipPath id="9848cb33b9"><path d="M 183.503906 152.164062 L 184.59375 207.550781 L 145.671875 208.316406 L 144.582031 152.929688 Z M 183.503906 152.164062 " clip-rule="nonzero"/></clipPath><clipPath id="79ac712e04"><path d="M 164.199219 152.542969 C 159.078125 152.644531 154.207031 154.777344 150.65625 158.46875 C 147.109375 162.160156 145.171875 167.109375 145.273438 172.230469 L 145.59375 188.636719 C 145.695312 193.753906 147.828125 198.625 151.519531 202.175781 C 155.210938 205.726562 160.160156 207.660156 165.28125 207.5625 C 170.402344 207.460938 175.273438 205.328125 178.820312 201.636719 C 182.371094 197.945312 184.308594 192.996094 184.207031 187.875 L 183.882812 171.46875 C 183.785156 166.351562 181.652344 161.480469 177.960938 157.929688 C 174.269531 154.378906 169.320312 152.441406 164.199219 152.542969 Z M 164.199219 152.542969 " clip-rule="nonzero"/></clipPath><clipPath id="1b84b70c8c"><path d="M 182.769531 152.925781 L 183.832031 206.816406 L 146.40625 207.554688 L 145.347656 153.664062 Z M 182.769531 152.925781 " clip-rule="nonzero"/></clipPath><clipPath id="6790f9fe2b"><path d="M 182.984375 171.488281 L 183.308594 187.894531 C 183.40625 192.773438 181.558594 197.496094 178.171875 201.015625 C 174.789062 204.535156 170.144531 206.566406 165.261719 206.664062 C 160.382812 206.757812 155.660156 204.910156 152.140625 201.527344 C 148.621094 198.144531 146.589844 193.5 146.492188 188.617188 L 146.171875 172.210938 C 146.074219 167.332031 147.921875 162.609375 151.304688 159.089844 C 154.691406 155.570312 159.332031 153.539062 164.214844 153.441406 C 169.097656 153.347656 173.816406 155.195312 177.339844 158.578125 C 180.859375 161.960938 182.890625 166.605469 182.984375 171.488281 Z M 182.984375 171.488281 " clip-rule="nonzero"/></clipPath><clipPath id="06db02b728"><path d="M 183.503906 152.164062 L 184.59375 207.550781 L 145.671875 208.316406 L 144.582031 152.929688 Z M 183.503906 152.164062 " clip-rule="nonzero"/></clipPath><clipPath id="479f2a70b4"><path d="M 182.769531 152.925781 L 183.832031 206.816406 L 146.40625 207.554688 L 145.347656 153.664062 Z M 182.769531 152.925781 " clip-rule="nonzero"/></clipPath><clipPath id="652ef188f5"><path d="M 183.5 152.167969 L 184.589844 207.558594 L 145.667969 208.324219 L 144.578125 152.933594 Z M 183.5 152.167969 " clip-rule="nonzero"/></clipPath><clipPath id="3dd9784646"><path d="M 145 152 L 185 152 L 185 208 L 145 208 Z M 145 152 " clip-rule="nonzero"/></clipPath><clipPath id="89c6d327f1"><path d="M 183.503906 152.164062 L 184.59375 207.550781 L 145.671875 208.316406 L 144.582031 152.929688 Z M 183.503906 152.164062 " clip-rule="nonzero"/></clipPath><clipPath id="f1e01fde3d"><path d="M 164.199219 152.542969 C 159.078125 152.644531 154.207031 154.777344 150.65625 158.46875 C 147.109375 162.160156 145.171875 167.109375 145.273438 172.230469 L 145.59375 188.636719 C 145.695312 193.753906 147.828125 198.625 151.519531 202.175781 C 155.210938 205.726562 160.160156 207.660156 165.28125 207.5625 C 170.402344 207.460938 175.273438 205.328125 178.820312 201.636719 C 182.371094 197.945312 184.308594 192.996094 184.207031 187.875 L 183.882812 171.46875 C 183.785156 166.351562 181.652344 161.480469 177.960938 157.929688 C 174.269531 154.378906 169.320312 152.441406 164.199219 152.542969 Z M 164.199219 152.542969 " clip-rule="nonzero"/></clipPath><clipPath id="03d0872dd8"><path d="M 183.503906 152.164062 L 184.59375 207.550781 L 145.671875 208.316406 L 144.582031 152.929688 Z M 183.503906 152.164062 " clip-rule="nonzero"/></clipPath><clipPath id="f3a008e92c"><path d="M 184.238281 151.402344 L 185.34375 207.535156 L 145.679688 208.316406 L 144.574219 152.183594 Z M 184.238281 151.402344 " clip-rule="nonzero"/></clipPath><clipPath id="dc6d6d24ce"><path d="M 164.203125 152.542969 C 159.082031 152.644531 154.210938 154.773438 150.664062 158.46875 C 147.113281 162.160156 145.179688 167.109375 145.277344 172.230469 L 145.601562 188.632812 C 145.703125 193.753906 147.832031 198.625 151.523438 202.171875 C 155.214844 205.722656 160.164062 207.660156 165.285156 207.558594 C 170.402344 207.457031 175.273438 205.328125 178.820312 201.636719 C 182.371094 197.941406 184.308594 192.992188 184.207031 187.871094 L 183.882812 171.46875 C 183.785156 166.347656 181.652344 161.480469 177.960938 157.929688 C 174.269531 154.378906 169.320312 152.441406 164.203125 152.542969 Z M 164.203125 152.542969 " clip-rule="nonzero"/></clipPath><clipPath id="da668dfa6b"><path d="M 197 153 L 235 153 L 235 207 L 197 207 Z M 197 153 " clip-rule="nonzero"/></clipPath><clipPath id="468f770378"><path d="M 234.5625 152.164062 L 235.652344 207.550781 L 196.730469 208.316406 L 195.640625 152.929688 Z M 234.5625 152.164062 " clip-rule="nonzero"/></clipPath><clipPath id="f0f53e1a15"><path d="M 215.253906 152.542969 C 210.136719 152.644531 205.265625 154.777344 201.714844 158.46875 C 198.167969 162.160156 196.230469 167.109375 196.328125 172.230469 L 196.652344 188.636719 C 196.753906 193.753906 198.882812 198.625 202.578125 202.175781 C 206.269531 205.726562 211.21875 207.660156 216.339844 207.5625 C 221.460938 207.460938 226.328125 205.328125 229.878906 201.636719 C 233.429688 197.945312 235.367188 192.996094 235.265625 187.875 L 234.941406 171.46875 C 234.839844 166.351562 232.710938 161.480469 229.019531 157.929688 C 225.328125 154.378906 220.375 152.441406 215.253906 152.542969 Z M 215.253906 152.542969 " clip-rule="nonzero"/></clipPath><clipPath id="e8a5b6ce27"><path d="M 233.828125 152.925781 L 234.890625 206.816406 L 197.464844 207.554688 L 196.402344 153.664062 Z M 233.828125 152.925781 " clip-rule="nonzero"/></clipPath><clipPath id="bd684ffb9f"><path d="M 234.042969 171.488281 L 234.367188 187.894531 C 234.460938 192.773438 232.617188 197.496094 229.230469 201.015625 C 225.847656 204.535156 221.203125 206.566406 216.320312 206.664062 C 211.4375 206.757812 206.71875 204.910156 203.199219 201.527344 C 199.679688 198.144531 197.648438 193.5 197.550781 188.617188 L 197.226562 172.210938 C 197.132812 167.332031 198.980469 162.609375 202.363281 159.089844 C 205.746094 155.570312 210.390625 153.539062 215.273438 153.441406 C 220.15625 153.347656 224.875 155.195312 228.394531 158.578125 C 231.917969 161.960938 233.949219 166.605469 234.042969 171.488281 Z M 234.042969 171.488281 " clip-rule="nonzero"/></clipPath><clipPath id="27b48e0b45"><path d="M 234.5625 152.164062 L 235.652344 207.550781 L 196.730469 208.316406 L 195.640625 152.929688 Z M 234.5625 152.164062 " clip-rule="nonzero"/></clipPath><clipPath id="1da1b14a0e"><path d="M 233.828125 152.925781 L 234.890625 206.816406 L 197.464844 207.554688 L 196.402344 153.664062 Z M 233.828125 152.925781 " clip-rule="nonzero"/></clipPath><clipPath id="545df74530"><path d="M 234.554688 152.167969 L 235.644531 207.558594 L 196.726562 208.324219 L 195.632812 152.933594 Z M 234.554688 152.167969 " clip-rule="nonzero"/></clipPath><clipPath id="919ca099a1"><path d="M 196 152 L 236 152 L 236 208 L 196 208 Z M 196 152 " clip-rule="nonzero"/></clipPath><clipPath id="26d57ce5e1"><path d="M 234.5625 152.164062 L 235.652344 207.550781 L 196.730469 208.316406 L 195.640625 152.929688 Z M 234.5625 152.164062 " clip-rule="nonzero"/></clipPath><clipPath id="d491202f1e"><path d="M 215.253906 152.542969 C 210.136719 152.644531 205.265625 154.777344 201.714844 158.46875 C 198.167969 162.160156 196.230469 167.109375 196.328125 172.230469 L 196.652344 188.636719 C 196.753906 193.753906 198.882812 198.625 202.578125 202.175781 C 206.269531 205.726562 211.21875 207.660156 216.339844 207.5625 C 221.460938 207.460938 226.328125 205.328125 229.878906 201.636719 C 233.429688 197.945312 235.367188 192.996094 235.265625 187.875 L 234.941406 171.46875 C 234.839844 166.351562 232.710938 161.480469 229.019531 157.929688 C 225.328125 154.378906 220.375 152.441406 215.253906 152.542969 Z M 215.253906 152.542969 " clip-rule="nonzero"/></clipPath><clipPath id="71d1af756e"><path d="M 234.5625 152.164062 L 235.652344 207.550781 L 196.730469 208.316406 L 195.640625 152.929688 Z M 234.5625 152.164062 " clip-rule="nonzero"/></clipPath><clipPath id="2db9e3fece"><path d="M 235.296875 151.402344 L 236.402344 207.535156 L 196.738281 208.316406 L 195.632812 152.183594 Z M 235.296875 151.402344 " clip-rule="nonzero"/></clipPath><clipPath id="2a81097d09"><path d="M 215.257812 152.542969 C 210.140625 152.644531 205.269531 154.773438 201.722656 158.46875 C 198.171875 162.160156 196.234375 167.109375 196.335938 172.230469 L 196.660156 188.632812 C 196.761719 193.753906 198.890625 198.625 202.582031 202.171875 C 206.273438 205.722656 211.222656 207.660156 216.34375 207.558594 C 221.460938 207.457031 226.332031 205.328125 229.878906 201.636719 C 233.429688 197.941406 235.367188 192.992188 235.265625 187.871094 L 234.941406 171.46875 C 234.839844 166.347656 232.710938 161.480469 229.019531 157.929688 C 225.328125 154.378906 220.378906 152.441406 215.257812 152.542969 Z M 215.257812 152.542969 " clip-rule="nonzero"/></clipPath><clipPath id="029575b8ab"><path d="M 149.324219 155.910156 L 180.164062 155.910156 L 180.164062 186.75 L 149.324219 186.75 Z M 149.324219 155.910156 " clip-rule="nonzero"/></clipPath><clipPath id="8a2e3e56ad"><path d="M 164.746094 155.910156 C 156.226562 155.910156 149.324219 162.8125 149.324219 171.328125 C 149.324219 179.847656 156.226562 186.75 164.746094 186.75 C 173.261719 186.75 180.164062 179.847656 180.164062 171.328125 C 180.164062 162.8125 173.261719 155.910156 164.746094 155.910156 Z M 164.746094 155.910156 " clip-rule="nonzero"/></clipPath><clipPath id="ae50cf0485"><path d="M 0.324219 0.910156 L 31.164062 0.910156 L 31.164062 31.75 L 0.324219 31.75 Z M 0.324219 0.910156 " clip-rule="nonzero"/></clipPath><clipPath id="010888625a"><path d="M 15.746094 0.910156 C 7.226562 0.910156 0.324219 7.8125 0.324219 16.328125 C 0.324219 24.847656 7.226562 31.75 15.746094 31.75 C 24.261719 31.75 31.164062 24.847656 31.164062 16.328125 C 31.164062 7.8125 24.261719 0.910156 15.746094 0.910156 Z M 15.746094 0.910156 " clip-rule="nonzero"/></clipPath><clipPath id="82201d6250"><rect x="0" width="32" y="0" height="32"/></clipPath><clipPath id="cf2ffbcbf4"><path d="M 200.382812 172.609375 L 231.222656 172.609375 L 231.222656 203.449219 L 200.382812 203.449219 Z M 200.382812 172.609375 " clip-rule="nonzero"/></clipPath><clipPath id="4a6f8b236b"><path d="M 215.800781 172.609375 C 207.285156 172.609375 200.382812 179.511719 200.382812 188.03125 C 200.382812 196.546875 207.285156 203.449219 215.800781 203.449219 C 224.320312 203.449219 231.222656 196.546875 231.222656 188.03125 C 231.222656 179.511719 224.320312 172.609375 215.800781 172.609375 Z M 215.800781 172.609375 " clip-rule="nonzero"/></clipPath><clipPath id="db9ea94ba9"><path d="M 0.382812 0.609375 L 31.222656 0.609375 L 31.222656 31.449219 L 0.382812 31.449219 Z M 0.382812 0.609375 " clip-rule="nonzero"/></clipPath><clipPath id="e9e37db43f"><path d="M 15.800781 0.609375 C 7.285156 0.609375 0.382812 7.511719 0.382812 16.03125 C 0.382812 24.546875 7.285156 31.449219 15.800781 31.449219 C 24.320312 31.449219 31.222656 24.546875 31.222656 16.03125 C 31.222656 7.511719 24.320312 0.609375 15.800781 0.609375 Z M 15.800781 0.609375 " clip-rule="nonzero"/></clipPath><clipPath id="60121124a8"><rect x="0" width="32" y="0" height="32"/></clipPath><clipPath id="4fba8d276c"><path d="M 149 40 L 370 40 L 370 208 L 149 208 Z M 149 40 " clip-rule="nonzero"/></clipPath><clipPath id="3e45c53e07"><path d="M 357.539062 207.933594 L 149.261719 102.210938 L 201.105469 0.0742188 L 409.382812 105.796875 Z M 357.539062 207.933594 " clip-rule="nonzero"/></clipPath><clipPath id="27b085960c"><path d="M 357.539062 207.933594 L 149.261719 102.210938 L 201.105469 0.0742188 L 409.382812 105.796875 Z M 357.539062 207.933594 " clip-rule="nonzero"/></clipPath><clipPath id="53385ff9fc"><path d="M 288.894531 51.148438 L 324.414062 51.148438 L 324.414062 86.667969 L 288.894531 86.667969 Z M 288.894531 51.148438 " clip-rule="nonzero"/></clipPath><clipPath id="b6618cf012"><path d="M 306.65625 51.148438 C 296.847656 51.148438 288.894531 59.101562 288.894531 68.910156 C 288.894531 78.71875 296.847656 86.667969 306.65625 86.667969 C 316.464844 86.667969 324.414062 78.71875 324.414062 68.910156 C 324.414062 59.101562 316.464844 51.148438 306.65625 51.148438 Z M 306.65625 51.148438 " clip-rule="nonzero"/></clipPath><clipPath id="52645eb0a9"><path d="M 0.894531 0.148438 L 36.414062 0.148438 L 36.414062 35.667969 L 0.894531 35.667969 Z M 0.894531 0.148438 " clip-rule="nonzero"/></clipPath><clipPath id="41a09ebf40"><path d="M 18.65625 0.148438 C 8.847656 0.148438 0.894531 8.101562 0.894531 17.910156 C 0.894531 27.71875 8.847656 35.667969 18.65625 35.667969 C 28.464844 35.667969 36.414062 27.71875 36.414062 17.910156 C 36.414062 8.101562 28.464844 0.148438 18.65625 0.148438 Z M 18.65625 0.148438 " clip-rule="nonzero"/></clipPath><clipPath id="e2ff0922d4"><rect x="0" width="37" y="0" height="36"/></clipPath></defs><g clip-path="url(#edcdac9518)"><g clip-path="url(#d80dfaf952)"><g transform="matrix(1, 0, 0, 1, 6, 166)"><g clip-path="url(#833f1bd5ae)"><g clip-path="url(#0411598028)"><g clip-path="url(#78986d2fdf)"><path fill="#ef5b13" d="M 11.257812 0.652344 L 143.488281 53.253906 L 133.03125 79.535156 L 0.800781 26.933594 Z M 11.257812 0.652344 " fill-opacity="1" fill-rule="nonzero"/></g></g></g></g></g></g><g clip-path="url(#a6a189633d)"><g clip-path="url(#b9fd95d726)"><g transform="matrix(1, 0, 0, 1, 0, 214)"><g clip-path="url(#1ffd2c91ab)"><g clip-path="url(#7cf16765cc)"><g clip-path="url(#c62e6fe5e6)"><path fill="#ef5b13" d="M 0 35.527344 L 137.847656 0.164062 L 144.875 27.5625 L 7.027344 62.925781 Z M 0 35.527344 " fill-opacity="1" fill-rule="nonzero"/></g></g></g></g></g></g><g clip-path="url(#a1fe17314d)"><g clip-path="url(#84b19d26b2)"><g transform="matrix(1, 0, 0, 1, 102, 112)"><g clip-path="url(#91ac7f2c87)"><g clip-path="url(#22431bcba6)"><g clip-path="url(#1b35ebcfdb)"><path fill="#7fcb44" d="M 0.078125 0.148438 L 242.632812 0.148438 L 242.632812 242.707031 L 0.078125 242.707031 Z M 0.078125 0.148438 " fill-opacity="1" fill-rule="nonzero"/></g></g></g></g></g></g><g clip-path="url(#5958fbfd2f)"><g clip-path="url(#412aac4de7)"><g clip-path="url(#142fcee1ab)"><path fill="#3d6931" d="M 316.097656 220.246094 C 333.046875 273.085938 304.550781 329.945312 251.753906 347.898438 C 199.011719 365.828125 141.761719 338.125 122.988281 285.910156 Z M 316.097656 220.246094 " fill-opacity="1" fill-rule="nonzero"/></g></g></g><g clip-path="url(#5df929d08e)"><g clip-path="url(#9848cb33b9)"><g clip-path="url(#79ac712e04)"><g clip-path="url(#1b84b70c8c)"><g clip-path="url(#6790f9fe2b)"><g clip-path="url(#06db02b728)"><g clip-path="url(#479f2a70b4)"><g clip-path="url(#652ef188f5)"><path fill="#ffffff" d="M 165.128906 207.929688 C 164.492188 207.941406 163.855469 207.910156 163.21875 207.835938 C 162.582031 207.757812 161.949219 207.636719 161.320312 207.472656 C 160.691406 207.308594 160.070312 207.101562 159.457031 206.847656 C 158.839844 206.597656 158.234375 206.304688 157.640625 205.96875 C 157.042969 205.632812 156.460938 205.257812 155.890625 204.84375 C 155.320312 204.425781 154.765625 203.972656 154.222656 203.476562 C 153.683594 202.984375 153.164062 202.453125 152.660156 201.890625 C 152.15625 201.324219 151.671875 200.726562 151.207031 200.09375 C 150.742188 199.460938 150.304688 198.796875 149.886719 198.105469 C 149.46875 197.410156 149.074219 196.691406 148.703125 195.945312 C 148.335938 195.199219 147.992188 194.429688 147.675781 193.632812 C 147.359375 192.839844 147.074219 192.027344 146.8125 191.195312 C 146.550781 190.363281 146.320312 189.511719 146.117188 188.648438 C 145.917969 187.785156 145.746094 186.910156 145.601562 186.023438 C 145.460938 185.136719 145.347656 184.242188 145.269531 183.339844 C 145.1875 182.441406 145.140625 181.535156 145.121094 180.628906 C 145.105469 179.722656 145.117188 178.816406 145.164062 177.914062 C 145.207031 177.011719 145.28125 176.113281 145.390625 175.222656 C 145.496094 174.328125 145.632812 173.449219 145.800781 172.578125 C 145.96875 171.707031 146.167969 170.847656 146.394531 170.007812 C 146.621094 169.164062 146.878906 168.339844 147.164062 167.535156 C 147.449219 166.730469 147.761719 165.945312 148.097656 165.183594 C 148.4375 164.421875 148.804688 163.6875 149.195312 162.980469 C 149.585938 162.269531 150 161.589844 150.4375 160.941406 C 150.875 160.292969 151.335938 159.675781 151.816406 159.089844 C 152.296875 158.503906 152.796875 157.953125 153.316406 157.441406 C 153.835938 156.925781 154.375 156.449219 154.929688 156.011719 C 155.480469 155.574219 156.050781 155.175781 156.632812 154.816406 C 157.214844 154.457031 157.808594 154.140625 158.410156 153.867188 C 159.015625 153.589844 159.628906 153.359375 160.25 153.167969 C 160.875 152.980469 161.5 152.835938 162.132812 152.734375 C 162.765625 152.632812 163.402344 152.574219 164.039062 152.5625 C 164.675781 152.550781 165.3125 152.582031 165.949219 152.660156 C 166.582031 152.734375 167.214844 152.855469 167.84375 153.019531 C 168.472656 153.183594 169.09375 153.390625 169.710938 153.644531 C 170.324219 153.894531 170.929688 154.1875 171.527344 154.523438 C 172.121094 154.859375 172.707031 155.234375 173.277344 155.652344 C 173.847656 156.066406 174.402344 156.523438 174.941406 157.015625 C 175.480469 157.507812 176.003906 158.039062 176.507812 158.601562 C 177.011719 159.167969 177.496094 159.769531 177.957031 160.398438 C 178.421875 161.03125 178.863281 161.695312 179.28125 162.386719 C 179.699219 163.082031 180.09375 163.800781 180.460938 164.546875 C 180.828125 165.292969 181.171875 166.066406 181.488281 166.859375 C 181.804688 167.652344 182.09375 168.464844 182.351562 169.296875 C 182.613281 170.132812 182.84375 170.980469 183.046875 171.84375 C 183.25 172.707031 183.421875 173.582031 183.5625 174.46875 C 183.703125 175.355469 183.816406 176.25 183.894531 177.152344 C 183.976562 178.050781 184.027344 178.957031 184.042969 179.863281 C 184.0625 180.769531 184.046875 181.675781 184.003906 182.578125 C 183.957031 183.480469 183.882812 184.378906 183.777344 185.269531 C 183.667969 186.164062 183.53125 187.042969 183.363281 187.914062 C 183.195312 188.789062 182.996094 189.644531 182.769531 190.488281 C 182.542969 191.328125 182.289062 192.152344 182.003906 192.957031 C 181.71875 193.765625 181.40625 194.546875 181.066406 195.308594 C 180.726562 196.070312 180.363281 196.804688 179.972656 197.511719 C 179.582031 198.222656 179.167969 198.902344 178.730469 199.550781 C 178.289062 200.199219 177.832031 200.816406 177.351562 201.402344 C 176.867188 201.988281 176.367188 202.539062 175.847656 203.050781 C 175.328125 203.566406 174.789062 204.042969 174.238281 204.480469 C 173.683594 204.917969 173.117188 205.316406 172.535156 205.675781 C 171.953125 206.035156 171.359375 206.351562 170.753906 206.625 C 170.148438 206.902344 169.535156 207.132812 168.914062 207.324219 C 168.292969 207.511719 167.664062 207.65625 167.03125 207.757812 C 166.398438 207.859375 165.765625 207.917969 165.128906 207.929688 Z M 165.128906 207.929688 " fill-opacity="1" fill-rule="nonzero"/></g></g></g></g></g></g></g></g><g clip-path="url(#3dd9784646)"><g clip-path="url(#89c6d327f1)"><g clip-path="url(#f1e01fde3d)"><g clip-path="url(#03d0872dd8)"><g clip-path="url(#f3a008e92c)"><g clip-path="url(#dc6d6d24ce)"><path stroke-linecap="butt" transform="matrix(0.0147351, 0.748486, -0.748486, 0.0147351, 183.504168, 152.16403)" fill="none" stroke-linejoin="miter" d="M -0.00137727 25.786738 C -0.000380968 32.628691 2.71473 39.190068 7.556612 44.024117 C 12.393174 48.863281 18.952079 51.575742 25.793929 51.579962 L 47.707982 51.578208 C 54.549935 51.577212 61.111312 48.8621 65.94526 44.025436 C 70.784424 39.188874 73.502101 32.630073 73.501105 25.78812 C 73.500006 18.951385 70.784895 12.390008 65.94823 7.556061 C 61.106451 2.716794 54.547649 -0.000883332 47.705696 0.000112966 L 25.791643 0.00186749 C 18.949793 -0.00235306 12.39353 2.718078 7.554366 7.554639 C 2.715201 12.391201 -0.00247628 18.950003 -0.00137727 25.786738 Z M -0.00137727 25.786738 " stroke="#000000" stroke-width="8" stroke-opacity="1" stroke-miterlimit="4"/></g></g></g></g></g></g><g clip-path="url(#da668dfa6b)"><g clip-path="url(#468f770378)"><g clip-path="url(#f0f53e1a15)"><g clip-path="url(#e8a5b6ce27)"><g clip-path="url(#bd684ffb9f)"><g clip-path="url(#27b48e0b45)"><g clip-path="url(#1da1b14a0e)"><g clip-path="url(#545df74530)"><path fill="#ffffff" d="M 216.183594 207.929688 C 215.546875 207.941406 214.910156 207.910156 214.273438 207.835938 C 213.640625 207.757812 213.007812 207.636719 212.378906 207.472656 C 211.75 207.308594 211.128906 207.101562 210.511719 206.847656 C 209.898438 206.597656 209.292969 206.304688 208.695312 205.96875 C 208.101562 205.632812 207.519531 205.257812 206.949219 204.84375 C 206.375 204.425781 205.820312 203.972656 205.28125 203.476562 C 204.742188 202.984375 204.21875 202.453125 203.714844 201.890625 C 203.210938 201.324219 202.726562 200.726562 202.265625 200.09375 C 201.800781 199.460938 201.359375 198.796875 200.941406 198.105469 C 200.523438 197.410156 200.132812 196.691406 199.761719 195.945312 C 199.394531 195.199219 199.050781 194.429688 198.734375 193.632812 C 198.417969 192.839844 198.128906 192.027344 197.871094 191.195312 C 197.609375 190.363281 197.378906 189.511719 197.175781 188.648438 C 196.972656 187.785156 196.800781 186.910156 196.660156 186.023438 C 196.519531 185.136719 196.40625 184.242188 196.328125 183.339844 C 196.246094 182.441406 196.199219 181.535156 196.179688 180.628906 C 196.160156 179.722656 196.175781 178.816406 196.21875 177.914062 C 196.265625 177.011719 196.339844 176.113281 196.449219 175.222656 C 196.554688 174.328125 196.691406 173.449219 196.859375 172.578125 C 197.027344 171.707031 197.226562 170.847656 197.453125 170.007812 C 197.679688 169.164062 197.9375 168.339844 198.222656 167.535156 C 198.503906 166.730469 198.816406 165.945312 199.15625 165.183594 C 199.496094 164.421875 199.859375 163.6875 200.25 162.980469 C 200.640625 162.269531 201.054688 161.589844 201.496094 160.941406 C 201.933594 160.292969 202.390625 159.675781 202.875 159.089844 C 203.355469 158.503906 203.855469 157.953125 204.375 157.441406 C 204.894531 156.925781 205.433594 156.449219 205.984375 156.011719 C 206.539062 155.574219 207.109375 155.175781 207.691406 154.816406 C 208.273438 154.457031 208.863281 154.140625 209.46875 153.867188 C 210.074219 153.589844 210.6875 153.359375 211.308594 153.167969 C 211.929688 152.980469 212.558594 152.835938 213.191406 152.734375 C 213.824219 152.632812 214.457031 152.574219 215.09375 152.5625 C 215.734375 152.550781 216.371094 152.582031 217.003906 152.660156 C 217.640625 152.734375 218.273438 152.855469 218.902344 153.019531 C 219.53125 153.183594 220.152344 153.390625 220.769531 153.644531 C 221.382812 153.894531 221.988281 154.1875 222.585938 154.523438 C 223.179688 154.859375 223.761719 155.234375 224.332031 155.652344 C 224.902344 156.066406 225.460938 156.523438 226 157.015625 C 226.539062 157.507812 227.0625 158.039062 227.566406 158.601562 C 228.070312 159.167969 228.550781 159.769531 229.015625 160.398438 C 229.480469 161.03125 229.917969 161.695312 230.339844 162.386719 C 230.757812 163.082031 231.148438 163.800781 231.519531 164.546875 C 231.886719 165.292969 232.230469 166.066406 232.546875 166.859375 C 232.863281 167.652344 233.152344 168.464844 233.410156 169.296875 C 233.671875 170.132812 233.902344 170.980469 234.105469 171.84375 C 234.308594 172.707031 234.480469 173.582031 234.621094 174.46875 C 234.761719 175.355469 234.875 176.25 234.953125 177.152344 C 235.035156 178.050781 235.082031 178.957031 235.101562 179.863281 C 235.117188 180.769531 235.105469 181.675781 235.0625 182.578125 C 235.015625 183.480469 234.941406 184.378906 234.832031 185.269531 C 234.726562 186.164062 234.589844 187.042969 234.421875 187.914062 C 234.253906 188.789062 234.054688 189.644531 233.828125 190.488281 C 233.601562 191.328125 233.34375 192.152344 233.058594 192.957031 C 232.777344 193.765625 232.464844 194.546875 232.125 195.308594 C 231.785156 196.070312 231.421875 196.804688 231.03125 197.511719 C 230.640625 198.222656 230.226562 198.902344 229.785156 199.550781 C 229.347656 200.199219 228.890625 200.816406 228.40625 201.402344 C 227.925781 201.988281 227.425781 202.539062 226.90625 203.050781 C 226.386719 203.566406 225.847656 204.042969 225.292969 204.480469 C 224.742188 204.917969 224.171875 205.316406 223.589844 205.675781 C 223.007812 206.035156 222.414062 206.351562 221.8125 206.625 C 221.207031 206.902344 220.59375 207.132812 219.972656 207.324219 C 219.351562 207.511719 218.722656 207.65625 218.089844 207.757812 C 217.457031 207.859375 216.824219 207.917969 216.183594 207.929688 Z M 216.183594 207.929688 " fill-opacity="1" fill-rule="nonzero"/></g></g></g></g></g></g></g></g><g clip-path="url(#919ca099a1)"><g clip-path="url(#26d57ce5e1)"><g clip-path="url(#d491202f1e)"><g clip-path="url(#71d1af756e)"><g clip-path="url(#2db9e3fece)"><g clip-path="url(#2a81097d09)"><path stroke-linecap="butt" transform="matrix(0.0147351, 0.748486, -0.748486, 0.0147351, 234.561864, 152.16403)" fill="none" stroke-linejoin="miter" d="M -0.00145637 25.790756 C -0.000357358 32.627492 2.714754 39.188868 7.556636 44.022918 C 12.393198 48.862082 18.952 51.579759 25.793953 51.578763 L 47.708006 51.577009 C 54.549959 51.576012 61.111336 48.860901 65.945283 44.024237 C 70.784447 39.187675 73.502125 32.628874 73.501129 25.786921 C 73.50003 18.950185 70.784918 12.388809 65.948253 7.554861 C 61.106474 2.715595 54.547673 -0.00208261 47.70572 -0.00108631 L 25.791667 0.00066821 C 18.949714 0.00166451 12.393553 2.716878 7.554389 7.55344 C 2.715225 12.390002 -0.00245267 18.948803 -0.00145637 25.790756 Z M -0.00145637 25.790756 " stroke="#000000" stroke-width="8" stroke-opacity="1" stroke-miterlimit="4"/></g></g></g></g></g></g><g clip-path="url(#029575b8ab)"><g clip-path="url(#8a2e3e56ad)"><g transform="matrix(1, 0, 0, 1, 149, 155)"><g clip-path="url(#82201d6250)"><g clip-path="url(#ae50cf0485)"><g clip-path="url(#010888625a)"><path fill="#000000" d="M 0.324219 0.910156 L 31.164062 0.910156 L 31.164062 31.75 L 0.324219 31.75 Z M 0.324219 0.910156 " fill-opacity="1" fill-rule="nonzero"/></g></g></g></g></g></g><g clip-path="url(#cf2ffbcbf4)"><g clip-path="url(#4a6f8b236b)"><g transform="matrix(1, 0, 0, 1, 200, 172)"><g clip-path="url(#60121124a8)"><g clip-path="url(#db9ea94ba9)"><g clip-path="url(#e9e37db43f)"><path fill="#000000" d="M 0.382812 0.609375 L 31.222656 0.609375 L 31.222656 31.449219 L 0.382812 31.449219 Z M 0.382812 0.609375 " fill-opacity="1" fill-rule="nonzero"/></g></g></g></g></g></g><g clip-path="url(#4fba8d276c)"><g clip-path="url(#3e45c53e07)"><g clip-path="url(#27b085960c)"><path fill="#cf4d0e" d="M 149.546875 102.355469 C 179.234375 46.300781 248.503906 24.207031 305.351562 53.0625 C 362.132812 81.886719 385.183594 150.839844 357.460938 207.894531 Z M 149.546875 102.355469 " fill-opacity="1" fill-rule="nonzero"/></g></g></g><g clip-path="url(#53385ff9fc)"><g clip-path="url(#b6618cf012)"><g transform="matrix(1, 0, 0, 1, 288, 51)"><g clip-path="url(#e2ff0922d4)"><g clip-path="url(#52645eb0a9)"><g clip-path="url(#41a09ebf40)"><path fill="#ebff00" d="M 0.894531 0.148438 L 36.414062 0.148438 L 36.414062 35.667969 L 0.894531 35.667969 Z M 0.894531 0.148438 " fill-opacity="1" fill-rule="nonzero"/></g></g></g></g></g></g><path stroke-linecap="butt" transform="matrix(0.667002, 0.339938, -0.339938, 0.667002, 162.787593, 86.324885)" fill="none" stroke-linejoin="miter" d="M 0.00274175 2.000504 L 305.503723 2.000855 " stroke="#000000" stroke-width="4" stroke-opacity="1" stroke-miterlimit="4"/><path stroke-linecap="butt" transform="matrix(0.731367, -0.159847, 0.159847, 0.731367, 179.846298, 95.09154)" fill="none" stroke-linejoin="miter" d="M -0.00263696 1.999989 L 149.219898 2.001744 " stroke="#000000" stroke-width="4" stroke-opacity="1" stroke-miterlimit="4"/><path stroke-linecap="butt" transform="matrix(0.619187, -0.42078, 0.42078, 0.619187, 230.382074, 122.816088)" fill="none" stroke-linejoin="miter" d="M -0.00124938 1.999515 L 101.410478 1.999756 " stroke="#000000" stroke-width="4" stroke-opacity="1" stroke-miterlimit="4"/><path stroke-linecap="butt" transform="matrix(0.134454, -0.736458, 0.736458, 0.134454, 292.54095, 155.639361)" fill="none" stroke-linejoin="miter" d="M -0.00205896 2.002763 L 94.018243 2.001738 " stroke="#000000" stroke-width="4" stroke-opacity="1" stroke-miterlimit="4"/><path stroke-linecap="butt" transform="matrix(-0.197845, -0.722016, 0.722016, -0.197845, 343.188669, 180.449778)" fill="none" stroke-linejoin="miter" d="M -0.000811402 1.999934 L 134.934682 2.001259 " stroke="#000000" stroke-width="4" stroke-opacity="1" stroke-miterlimit="4"/></svg>